<svg xmlns="http://www.w3.org/2000/svg" width="128" height="128"><path d="M105.648 14.098C116.937 23.708 125.554 37.184 128 52c1.602 20.515-1.329 38.925-14.932 54.967-10.303 11.442-25.112 20.009-40.659 21.238-20.22.724-37.512-2.652-52.909-16.518C7.966 100.776.322 85.474-.336 69.547-.504 58.689-.429 49.077 4 39l1.098-2.648C12.81 19.355 27.033 8.776 43.824 1.832 65.43-4.886 88.304.361 105.648 14.098zM45 20c-11.526 6.804-18.792 15.578-23.11 28.258-3.294 13.843-.793 26.395 6.36 38.492 7.04 10.433 17.186 16.979 29.344 20.203 12.142 2.096 24.33.267 34.781-6.488 8.764-6.462 8.764-6.462 14.277-15.528.352-2.105.352-2.105.348-4.937-2.74-2.286-2.74-2.286-5.418-1.754-2.485.726-4.58 1.67-6.894 2.817-8.616 3.51-18.92 3.215-27.688.312C57.405 77.224 51.71 71.38 47 62c-3.507-10.055-3.57-21.286 1.043-30.938C49.263 28.434 49.698 25.87 50 23l-5-3z"/><path d="M47 23c1.295 3.885.367 4.813-1.375 8.438C41.095 41.951 41.168 51.248 45 62c4.046 9.665 10.888 16.722 20.438 21.031 9.96 3.766 20.086 4.046 30-.094l2.308-1.097c2.551-.95 4.553-.988 7.254-.84-.293 5.998-2.783 9.05-7 13-11.38 9.622-23.383 12.243-37.945 11.228C51.658 104.298 44.55 100.118 38 95l-1.867-1.45C29.518 87.716 24.1 77.77 23 69c-.811-14.524.89-26.662 10.805-38.078A95.885 95.885 0 0 1 39 26l2.188-1.938C43 23 43 23 47 23z"/></svg>