<svg xmlns="http://www.w3.org/2000/svg" fill="white" width="128" height="128"><path d="M78 40c6.479 4.609 11.442 9.979 13 18 .717 9.652-.056 16.678-6.25 24.25-4.893 5.266-10.233 8.414-17.484 8.953-10.014.156-16.1-1.42-23.504-8.3-6-6.48-7.14-13.167-7.035-21.735.647-7.505 3.626-13.656 9.238-18.695C55.08 35.876 68.046 34.13 78 40zM50.625 55.625C48.421 60.203 48.203 64.005 49 69c2.33 4.839 5.161 7.67 10 10 4.994.797 8.797.58 13.375-1.625 3.584-3.243 6.22-5.84 7.008-10.773C79.639 60.918 78.936 57.35 75 53c-4.35-3.936-7.918-4.639-13.602-4.383-4.933.788-7.53 3.424-10.773 7.008zM98 89c2.457 2.07 4.39 4.213 6 7 .063 3.313.063 3.313-1 6-3 2-3 2-5.813 2.063-4.45-1.484-6.9-3.988-9.187-8.063-.125-3.313-.125-3.313 1-6 3.016-2.478 5.459-2.433 9-1zM35.313 87.875C38 89 38 89 39.437 90.75c.758 3.03.75 4.317-.437 7.25-2.07 2.457-4.213 4.39-7 6-3.313.063-3.313.063-6-1-2-3-2-3-2.063-5.813 1.813-5.438 5.53-9.091 11.375-9.312zM99.313 23.938C102 25 102 25 104 28c.072 3.243-.364 5.213-2.422 7.758-3.012 2.866-4.648 4.207-8.89 4.367C90 39 90 39 88.561 37.25c-.757-3.03-.75-4.317.438-7.25 3.052-3.622 5.465-5.971 10.313-6.063zM30.813 23.938c4.45 1.483 6.9 3.987 9.187 8.062.125 3.313.125 3.313-1 6-2.204 1.81-3.545 1.988-6.375 2.063C28.615 38.44 26.152 35.727 24 32c-.063-3.313-.063-3.313 1-6 3-2 3-2 5.813-2.063zM67 101c2.258 1.652 2.92 2.566 3.434 5.34.01 6.926.01 6.926-2.059 10.347C66 118 66 118 62.875 117.938 60 117 60 117 58 114c-.3-2.375-.3-2.375-.313-5l-.05-2.625C58 104 58 104 59.332 102.211c2.585-1.877 4.572-1.598 7.668-1.211zM111.61 57.652C114 58 114 58 116.687 59.625 118 62 118 62 117.938 65.125 117 68 117 68 114 70c-4.062.576-7.79.531-11.563-1.125C101 67 101 67 100.564 64c.968-6.644 5.223-6.543 11.046-6.348zM65.125 10.063C68 11 68 11 70 14c.576 4.062.531 7.79-1.125 11.563C67 27 67 27 64 27.438c-3.339-.487-4.026-.813-6-3.438-.845-4.56-.79-8.693 1.625-12.688C62 10 62 10 65.125 10.063zM23 58c2.563 1.125 2.563 1.125 4 3 .5 3 .5 3 0 6-1.8 2.348-3.233 2.886-6.129 3.316-3.846.197-6.175.115-9.496-1.941C10 66 10 66 10.062 62.875 12.078 56.698 17.514 57.376 23 58z"/></svg>